# xmcd
#
# Track frame offsets:
#	200
#	16630
#	47432
#	70427
#	95402
#	116247
#	132500
#	159407
#	179202
#	204135
#	225662
#	238432
# Disc length: 3418 seconds
# Revision: 1
# Processed by: cddbd v1.5.2PL0 Copyright (c) Steve Scherf et al.
#
# Submitted via: libkcddb 0.10
#
DISCID=a50d580c
DTITLE=Milton Batiste and Alton Carson - Best of New Orleans Bourbon Street Jazz
DYEAR=1900
DGENRE=Jazz
TTITLE0=Sweet Lorraine
TTITLE1=When My Dreamboat Comes Home
TTITLE2=China Boy
TTITLE3=On the Sunny Side of the Street
TTITLE4=After You're Gone
TTITLE5=Who's Sorry Now
TTITLE6=Funky New Second Line
TTITLE7=Bogalusa Strut
TTITLE8=You Are My Sunshine
TTITLE9=Glory of Love
TTITLE10=Rosetta
TTITLE11=C. C. Rider
EXTD=
EXTT0=
EXTT1=
EXTT2=
EXTT3=
EXTT4=
EXTT5=
EXTT6=
EXTT7=
EXTT8=
EXTT9=
EXTT10=
EXTT11=
PLAYORDER=
